<svg width="50" height="50" viewBox="0 0 50 50" fill="none" xmlns="http://www.w3.org/2000/svg">
    <!--//socials//-->
    <g id="instagram">
        <path fill-rule="evenodd" clip-rule="evenodd" d="M2 6C2 3.79086 3.79086 2 6 2H18C20.2091 2 22 3.79086 22 6V18C22
        20.2091 20.2091 22 18 22H6C3.79086 22 2 20.2091 2 18V6ZM6 4C4.89543 4 4 4.89543 4 6V18C4 19.1046 4.89543 20 6
        20H18C19.1046 20 20 19.1046 20 18V6C20 4.89543 19.1046 4 18 4H6ZM12 9C10.3431 9 9 10.3431 9 12C9 13.6569 10.3431
        15 12 15C13.6569 15 15 13.6569 15 12C15 10.3431 13.6569 9 12 9ZM7 12C7 9.23858 9.23858 7 12 7C14.7614 7 17
        9.23858 17 12C17 14.7614 14.7614 17 12 17C9.23858 17 7 14.7614 7 12ZM17.5 8C18.3284 8 19 7.32843 19 6.5C19
        5.67157 18.3284 5 17.5 5C16.6716 5 16 5.67157 16 6.5C16 7.32843 16.6716 8 17.5 8Z" fill="#000000"/>
    </g>
    <g id="whatsapp">
        <path d="M6.014 8.00613C6.12827 7.1024 7.30277 5.87414 8.23488 6.01043L8.23339 6.00894C9.14051 6.18132 9.85859 7.74261 10.2635 8.44465C10.5504 8.95402 10.3641 9.4701 10.0965 9.68787C9.7355 9.97883 9.17099 10.3803 9.28943 10.7834C9.5 11.5 12 14 13.2296 14.7107C13.695 14.9797 14.0325 14.2702 14.3207 13.9067C14.5301 13.6271 15.0466 13.46 15.5548 13.736C16.3138 14.178 17.0288 14.6917 17.69 15.27C18.0202 15.546 18.0977 15.9539 17.8689 16.385C17.4659 17.1443 16.3003 18.1456 15.4542 17.9421C13.9764 17.5868 8 15.27 6.08033 8.55801C5.97237 8.24048 5.99955 8.12044 6.014 8.00613Z"
              fill="#0F0F0F"/>
        <path fill-rule="evenodd" clip-rule="evenodd" d="M12 23C10.7764 23 10.0994 22.8687 9 22.5L6.89443 23.5528C5.56462 24.2177 4 23.2507 4 21.7639V19.5C1.84655 17.492 1 15.1767 1 12C1 5.92487 5.92487 1 12 1C18.0751 1 23 5.92487 23 12C23 18.0751 18.0751 23 12 23ZM6 18.6303L5.36395 18.0372C3.69087 16.4772 3 14.7331 3 12C3 7.02944 7.02944 3 12 3C16.9706 3 21 7.02944 21 12C21 16.9706 16.9706 21 12 21C11.0143 21 10.552 20.911 9.63595 20.6038L8.84847 20.3397L6 21.7639V18.6303Z"
              fill="#0F0F0F"/>
    </g>
    <g id="youtube">
        <path d="M30.722,20.579 C30.137,21.894 28.628,23.085 27.211,23.348 C27.066,23.375 23.603,24.000 16.010,24.000 L15.990,24.000 C8.398,24.000 4.932,23.375 4.788,23.349 C3.371,23.085 1.861,21.894 1.275,20.578 C1.223,20.461 0.001,17.647 0.001,12.000 C0.001,6.353 1.223,3.538 1.275,3.421 C1.861,2.105 3.371,0.915 4.788,0.652 C4.932,0.625 8.398,-0.000 15.990,-0.000 C23.603,-0.000 27.066,0.625 27.210,0.651 C28.628,0.915 30.137,2.105 30.723,3.420 C30.775,3.538 32.000,6.353 32.000,12.000 C32.000,17.647 30.775,20.461 30.722,20.579 ZM28.893,4.230 C28.581,3.529 27.603,2.759 26.845,2.618 C26.813,2.612 23.386,2.000 16.010,2.000 C8.615,2.000 5.185,2.612 5.152,2.618 C4.394,2.759 3.417,3.529 3.104,4.234 C3.094,4.255 2.002,6.829 2.002,12.000 C2.002,17.170 3.094,19.744 3.106,19.770 C3.417,20.471 4.394,21.241 5.153,21.382 C5.185,21.388 8.615,22.000 15.990,22.000 L16.010,22.000 C23.386,22.000 26.813,21.388 26.846,21.382 C27.604,21.241 28.581,20.471 28.894,19.766 C28.904,19.744 29.998,17.170 29.998,12.000 C29.998,6.830 28.904,4.255 28.893,4.230 ZM13.541,17.846 C13.379,17.949 13.193,18.000 13.008,18.000 C12.842,18.000 12.676,17.959 12.525,17.875 C12.206,17.699 12.008,17.364 12.008,17.000 L12.008,7.000 C12.008,6.637 12.204,6.303 12.521,6.127 C12.838,5.950 13.227,5.958 13.534,6.149 L21.553,11.105 C21.846,11.286 22.026,11.606 22.027,11.951 C22.028,12.296 21.852,12.618 21.560,12.801 L13.541,17.846 ZM14.009,8.794 L14.009,15.189 L19.137,11.963 L14.009,8.794 Z"/>
    </g>
</svg>